<mxfile host="app.diagrams.net" modified="2024-06-21T06:15:16.686Z" agent="Mozilla/5.0 (Windows NT 10.0; Win64; x64) AppleWebKit/537.36 (KHTML, like Gecko) Chrome/126.0.0.0 Safari/537.36 Edg/126.0.0.0" version="24.6.0" etag="i9WH1F7vNOopTceP6sxy" type="github">
  <diagram name="第 1 页" id="nV2qm7nS3EXXRHbIPoIU">
    <mxGraphModel>
      <root>
        <mxCell id="0" />
        <mxCell id="1" parent="0" />
      </root>
    </mxGraphModel>
  </diagram>
</mxfile>
